<mxfile host="" modified="2020-07-12T09:35:09.053Z" agent="5.0 (Macintosh; Intel Mac OS X 10_13_6) AppleWebKit/537.36 (KHTML, like Gecko) Code/1.46.1 Chrome/78.0.3904.130 Electron/7.3.1 Safari/537.36" etag="Eb0a8DhzZeX42o5825YB" version="13.1.3" pages="3">
    <diagram id="6hGFLwfOUW9BJ-s0fimq" name="整体模块设计">
        <mxGraphModel dx="509" dy="580" grid="1" gridSize="10" guides="1" tooltips="1" connect="1" arrows="1" fold="1" page="1" pageScale="1" pageWidth="1169" pageHeight="827" math="0" shadow="0">
            <root>
                <mxCell id="0"/>
                <mxCell id="1" parent="0"/>
                <mxCell id="6" value="问卷系统" style="rounded=0;whiteSpace=wrap;html=1;align=left;verticalAlign=top;" parent="1" vertex="1">
                    <mxGeometry x="360" y="204" width="480" height="420" as="geometry"/>
                </mxCell>
                <mxCell id="10" style="edgeStyle=orthogonalEdgeStyle;rounded=0;orthogonalLoop=1;jettySize=auto;html=1;exitX=0.5;exitY=0.5;exitDx=0;exitDy=0;exitPerimeter=0;entryX=0;entryY=0.5;entryDx=0;entryDy=0;" parent="1" source="7" target="18" edge="1">
                    <mxGeometry relative="1" as="geometry">
                        <mxPoint x="362" y="404" as="targetPoint"/>
                    </mxGeometry>
                </mxCell>
                <mxCell id="7" value="采集者" style="shape=umlActor;verticalLabelPosition=bottom;labelBackgroundColor=#ffffff;verticalAlign=top;html=1;outlineConnect=0;" parent="1" vertex="1">
                    <mxGeometry x="220" y="374" width="30" height="60" as="geometry"/>
                </mxCell>
                <mxCell id="21" style="edgeStyle=orthogonalEdgeStyle;rounded=0;orthogonalLoop=1;jettySize=auto;html=1;exitX=0.5;exitY=0.5;exitDx=0;exitDy=0;exitPerimeter=0;" parent="1" source="11" target="19" edge="1">
                    <mxGeometry relative="1" as="geometry"/>
                </mxCell>
                <mxCell id="11" value="被采集者" style="shape=umlActor;verticalLabelPosition=bottom;labelBackgroundColor=#ffffff;verticalAlign=top;html=1;outlineConnect=0;" parent="1" vertex="1">
                    <mxGeometry x="970" y="374" width="30" height="60" as="geometry"/>
                </mxCell>
                <mxCell id="20" style="edgeStyle=orthogonalEdgeStyle;rounded=0;orthogonalLoop=1;jettySize=auto;html=1;exitX=0.75;exitY=1;exitDx=0;exitDy=0;entryX=0.5;entryY=0;entryDx=0;entryDy=0;" parent="1" source="18" target="19" edge="1">
                    <mxGeometry relative="1" as="geometry"/>
                </mxCell>
                <mxCell id="18" value="问卷配置" style="rounded=0;whiteSpace=wrap;html=1;labelPosition=center;verticalLabelPosition=middle;align=left;verticalAlign=top;" parent="1" vertex="1">
                    <mxGeometry x="380" y="254" width="440" height="100" as="geometry"/>
                </mxCell>
                <mxCell id="23" style="edgeStyle=orthogonalEdgeStyle;rounded=0;orthogonalLoop=1;jettySize=auto;html=1;exitX=0;exitY=0.5;exitDx=0;exitDy=0;entryX=1;entryY=0.5;entryDx=0;entryDy=0;" parent="1" source="19" target="22" edge="1">
                    <mxGeometry relative="1" as="geometry"/>
                </mxCell>
                <mxCell id="19" value="问卷母版" style="rounded=0;whiteSpace=wrap;html=1;" parent="1" vertex="1">
                    <mxGeometry x="700" y="394" width="120" height="210" as="geometry"/>
                </mxCell>
                <mxCell id="24" style="edgeStyle=orthogonalEdgeStyle;rounded=0;orthogonalLoop=1;jettySize=auto;html=1;exitX=0;exitY=0.5;exitDx=0;exitDy=0;entryX=0;entryY=0.3333333333333333;entryDx=0;entryDy=0;entryPerimeter=0;" parent="1" source="22" target="7" edge="1">
                    <mxGeometry relative="1" as="geometry"/>
                </mxCell>
                <mxCell id="22" value="数据统计" style="rounded=0;whiteSpace=wrap;html=1;align=left;verticalAlign=top;" parent="1" vertex="1">
                    <mxGeometry x="380" y="394" width="300" height="210" as="geometry"/>
                </mxCell>
                <mxCell id="25" value="模版库" style="rounded=1;whiteSpace=wrap;html=1;" parent="1" vertex="1">
                    <mxGeometry x="390" y="284" width="120" height="60" as="geometry"/>
                </mxCell>
                <mxCell id="26" value="题型库" style="rounded=1;whiteSpace=wrap;html=1;" parent="1" vertex="1">
                    <mxGeometry x="520" y="284" width="120" height="60" as="geometry"/>
                </mxCell>
                <mxCell id="27" value="数据清单" style="rounded=1;whiteSpace=wrap;html=1;align=center;" parent="1" vertex="1">
                    <mxGeometry x="405" y="484" width="250" height="40" as="geometry"/>
                </mxCell>
                <mxCell id="31" value="回收概况" style="rounded=1;whiteSpace=wrap;html=1;align=center;" parent="1" vertex="1">
                    <mxGeometry x="405" y="424" width="250" height="40" as="geometry"/>
                </mxCell>
                <mxCell id="30" value="按题型统计图表" style="rounded=1;whiteSpace=wrap;html=1;align=center;" parent="1" vertex="1">
                    <mxGeometry x="405" y="544" width="250" height="40" as="geometry"/>
                </mxCell>
            </root>
        </mxGraphModel>
    </diagram>
    <diagram id="-GA-98Yk1f9GpFtll6xc" name="开发计划">
        <mxGraphModel dx="509" dy="580" grid="1" gridSize="10" guides="1" tooltips="1" connect="1" arrows="1" fold="1" page="1" pageScale="1" pageWidth="1169" pageHeight="827" math="0" shadow="0">
            <root>
                <mxCell id="2Q_pcQU8oh3QHfparBG2-0"/>
                <mxCell id="2Q_pcQU8oh3QHfparBG2-1" parent="2Q_pcQU8oh3QHfparBG2-0"/>
                <mxCell id="2Q_pcQU8oh3QHfparBG2-2" value="v1.0" style="html=1;shadow=0;dashed=0;align=center;verticalAlign=middle;shape=mxgraph.arrows2.arrow;dy=0;dx=10;notch=10;" parent="2Q_pcQU8oh3QHfparBG2-1" vertex="1">
                    <mxGeometry x="215" y="264" width="240" height="30" as="geometry"/>
                </mxCell>
                <mxCell id="2Q_pcQU8oh3QHfparBG2-3" value="v1.1" style="html=1;shadow=0;dashed=0;align=center;verticalAlign=middle;shape=mxgraph.arrows2.arrow;dy=0;dx=10;notch=10;" parent="2Q_pcQU8oh3QHfparBG2-1" vertex="1">
                    <mxGeometry x="465" y="264" width="240" height="30" as="geometry"/>
                </mxCell>
                <mxCell id="2Q_pcQU8oh3QHfparBG2-4" value="v1.2" style="html=1;shadow=0;dashed=0;align=center;verticalAlign=middle;shape=mxgraph.arrows2.arrow;dy=0;dx=10;notch=10;" parent="2Q_pcQU8oh3QHfparBG2-1" vertex="1">
                    <mxGeometry x="715" y="264" width="240" height="30" as="geometry"/>
                </mxCell>
                <mxCell id="2Q_pcQU8oh3QHfparBG2-5" value="&lt;ol&gt;&lt;li&gt;基础环境搭建&lt;/li&gt;&lt;li&gt;store和router设计&lt;/li&gt;&lt;li&gt;公用组件抽象&lt;/li&gt;&lt;li&gt;问卷配置题型库开发完成&lt;/li&gt;&lt;/ol&gt;" style="rounded=0;whiteSpace=wrap;html=1;align=left;verticalAlign=top;" parent="2Q_pcQU8oh3QHfparBG2-1" vertex="1">
                    <mxGeometry x="215" y="314" width="240" height="250" as="geometry"/>
                </mxCell>
                <mxCell id="2Q_pcQU8oh3QHfparBG2-6" value="&lt;ol&gt;&lt;li&gt;问卷配置模版哭开发完成&lt;/li&gt;&lt;li&gt;问卷母版开发完成&lt;/li&gt;&lt;/ol&gt;" style="rounded=0;whiteSpace=wrap;html=1;align=left;verticalAlign=top;" parent="2Q_pcQU8oh3QHfparBG2-1" vertex="1">
                    <mxGeometry x="465" y="314" width="240" height="250" as="geometry"/>
                </mxCell>
                <mxCell id="2Q_pcQU8oh3QHfparBG2-7" value="&lt;div&gt;&lt;b&gt;数据统计&lt;/b&gt;&lt;/div&gt;&lt;ol&gt;&lt;li&gt;回收概况&lt;/li&gt;&lt;li&gt;数据清单&lt;/li&gt;&lt;li&gt;按题型统计图标&lt;/li&gt;&lt;/ol&gt;" style="rounded=0;whiteSpace=wrap;html=1;align=left;verticalAlign=top;" parent="2Q_pcQU8oh3QHfparBG2-1" vertex="1">
                    <mxGeometry x="715" y="314" width="240" height="250" as="geometry"/>
                </mxCell>
            </root>
        </mxGraphModel>
    </diagram>
    <diagram id="EFxAgW0UaVcD4PKtqIJW" name="数据模型设计v1.0">
        <mxGraphModel dx="509" dy="580" grid="1" gridSize="10" guides="1" tooltips="1" connect="1" arrows="1" fold="1" page="1" pageScale="1" pageWidth="1169" pageHeight="827" math="0" shadow="0">
            <root>
                <mxCell id="7_IISq6sOuqJta_1WwWG-0"/>
                <mxCell id="7_IISq6sOuqJta_1WwWG-1" parent="7_IISq6sOuqJta_1WwWG-0"/>
                <mxCell id="ZALmVG_1WhCoCVp5l2qI-14" value="" style="group" parent="7_IISq6sOuqJta_1WwWG-1" vertex="1" connectable="0">
                    <mxGeometry x="20" y="286" width="140" height="52" as="geometry"/>
                </mxCell>
                <mxCell id="ZALmVG_1WhCoCVp5l2qI-13" value="" style="group" parent="ZALmVG_1WhCoCVp5l2qI-14" vertex="1" connectable="0">
                    <mxGeometry width="140" height="52" as="geometry"/>
                </mxCell>
                <mxCell id="ZALmVG_1WhCoCVp5l2qI-12" value="" style="group" parent="ZALmVG_1WhCoCVp5l2qI-13" vertex="1" connectable="0">
                    <mxGeometry width="140" height="52" as="geometry"/>
                </mxCell>
                <mxCell id="ZALmVG_1WhCoCVp5l2qI-11" value="" style="group" parent="ZALmVG_1WhCoCVp5l2qI-12" vertex="1" connectable="0">
                    <mxGeometry width="140" height="52" as="geometry"/>
                </mxCell>
                <mxCell id="ZALmVG_1WhCoCVp5l2qI-7" value="SurveyBase" style="swimlane;fontStyle=0;childLayout=stackLayout;horizontal=1;startSize=26;fillColor=none;horizontalStack=0;resizeParent=1;resizeParentMax=0;resizeLast=0;collapsible=1;marginBottom=0;" parent="ZALmVG_1WhCoCVp5l2qI-11" vertex="1">
                    <mxGeometry width="140" height="52" as="geometry">
                        <mxRectangle width="100" height="26" as="alternateBounds"/>
                    </mxGeometry>
                </mxCell>
                <mxCell id="ZALmVG_1WhCoCVp5l2qI-8" value="+ sid: string" style="text;strokeColor=none;fillColor=none;align=left;verticalAlign=top;spacingLeft=4;spacingRight=4;overflow=hidden;rotatable=0;points=[[0,0.5],[1,0.5]];portConstraint=eastwest;" parent="ZALmVG_1WhCoCVp5l2qI-7" vertex="1">
                    <mxGeometry y="26" width="140" height="26" as="geometry"/>
                </mxCell>
                <mxCell id="ZALmVG_1WhCoCVp5l2qI-26" value="Extends" style="endArrow=block;endSize=16;endFill=0;html=1;exitX=0;exitY=0.5;exitDx=0;exitDy=0;entryX=1;entryY=0.5;entryDx=0;entryDy=0;" parent="7_IISq6sOuqJta_1WwWG-1" source="ZALmVG_1WhCoCVp5l2qI-18" target="r6sppRKxVzI3uFywgXhF-2" edge="1">
                    <mxGeometry width="160" relative="1" as="geometry">
                        <mxPoint x="500" y="310" as="sourcePoint"/>
                        <mxPoint x="350" y="150" as="targetPoint"/>
                    </mxGeometry>
                </mxCell>
                <mxCell id="ZALmVG_1WhCoCVp5l2qI-31" value="" style="group" parent="7_IISq6sOuqJta_1WwWG-1" vertex="1" connectable="0">
                    <mxGeometry x="440" y="350" width="180" height="78" as="geometry"/>
                </mxCell>
                <mxCell id="ZALmVG_1WhCoCVp5l2qI-27" value="SurveyContent(问卷结果类)" style="swimlane;fontStyle=0;childLayout=stackLayout;horizontal=1;startSize=26;fillColor=none;horizontalStack=0;resizeParent=1;resizeParentMax=0;resizeLast=0;collapsible=1;marginBottom=0;" parent="ZALmVG_1WhCoCVp5l2qI-31" vertex="1">
                    <mxGeometry x="-35" y="-12" width="180" height="78" as="geometry">
                        <mxRectangle x="-35" y="-12" width="180" height="26" as="alternateBounds"/>
                    </mxGeometry>
                </mxCell>
                <mxCell id="ZALmVG_1WhCoCVp5l2qI-28" value="+ series: string" style="text;strokeColor=none;fillColor=none;align=left;verticalAlign=top;spacingLeft=4;spacingRight=4;overflow=hidden;rotatable=0;points=[[0,0.5],[1,0.5]];portConstraint=eastwest;" parent="ZALmVG_1WhCoCVp5l2qI-27" vertex="1">
                    <mxGeometry y="26" width="180" height="26" as="geometry"/>
                </mxCell>
                <mxCell id="ZALmVG_1WhCoCVp5l2qI-29" value="+ subjects: SubjectValue[]" style="text;strokeColor=none;fillColor=none;align=left;verticalAlign=top;spacingLeft=4;spacingRight=4;overflow=hidden;rotatable=0;points=[[0,0.5],[1,0.5]];portConstraint=eastwest;" parent="ZALmVG_1WhCoCVp5l2qI-27" vertex="1">
                    <mxGeometry y="52" width="180" height="26" as="geometry"/>
                </mxCell>
                <mxCell id="ZALmVG_1WhCoCVp5l2qI-33" value="Extends" style="endArrow=block;endSize=16;endFill=0;html=1;exitX=0;exitY=0.5;exitDx=0;exitDy=0;entryX=1.014;entryY=0;entryDx=0;entryDy=0;entryPerimeter=0;" parent="7_IISq6sOuqJta_1WwWG-1" source="ZALmVG_1WhCoCVp5l2qI-28" target="ZALmVG_1WhCoCVp5l2qI-8" edge="1">
                    <mxGeometry width="160" relative="1" as="geometry">
                        <mxPoint x="310" y="360" as="sourcePoint"/>
                        <mxPoint x="470" y="360" as="targetPoint"/>
                    </mxGeometry>
                </mxCell>
                <mxCell id="ZALmVG_1WhCoCVp5l2qI-37" value="" style="group" parent="7_IISq6sOuqJta_1WwWG-1" vertex="1" connectable="0">
                    <mxGeometry x="460" y="30" width="180" height="156" as="geometry"/>
                </mxCell>
                <mxCell id="ZALmVG_1WhCoCVp5l2qI-24" value="" style="group" parent="ZALmVG_1WhCoCVp5l2qI-37" vertex="1" connectable="0">
                    <mxGeometry width="180" height="156" as="geometry"/>
                </mxCell>
                <mxCell id="ZALmVG_1WhCoCVp5l2qI-15" value="SurveyConfig(问卷配置类)" style="swimlane;fontStyle=0;childLayout=stackLayout;horizontal=1;startSize=26;fillColor=none;horizontalStack=0;resizeParent=1;resizeParentMax=0;resizeLast=0;collapsible=1;marginBottom=0;" parent="ZALmVG_1WhCoCVp5l2qI-24" vertex="1">
                    <mxGeometry width="180" height="156" as="geometry">
                        <mxRectangle width="170" height="26" as="alternateBounds"/>
                    </mxGeometry>
                </mxCell>
                <mxCell id="ZALmVG_1WhCoCVp5l2qI-16" value="+ title: string" style="text;strokeColor=none;fillColor=none;align=left;verticalAlign=top;spacingLeft=4;spacingRight=4;overflow=hidden;rotatable=0;points=[[0,0.5],[1,0.5]];portConstraint=eastwest;" parent="ZALmVG_1WhCoCVp5l2qI-15" vertex="1">
                    <mxGeometry y="26" width="180" height="26" as="geometry"/>
                </mxCell>
                <mxCell id="ZALmVG_1WhCoCVp5l2qI-17" value="+ desc: string" style="text;strokeColor=none;fillColor=none;align=left;verticalAlign=top;spacingLeft=4;spacingRight=4;overflow=hidden;rotatable=0;points=[[0,0.5],[1,0.5]];portConstraint=eastwest;" parent="ZALmVG_1WhCoCVp5l2qI-15" vertex="1">
                    <mxGeometry y="52" width="180" height="26" as="geometry"/>
                </mxCell>
                <mxCell id="ZALmVG_1WhCoCVp5l2qI-18" value="+ epliogue: string" style="text;strokeColor=none;fillColor=none;align=left;verticalAlign=top;spacingLeft=4;spacingRight=4;overflow=hidden;rotatable=0;points=[[0,0.5],[1,0.5]];portConstraint=eastwest;" parent="ZALmVG_1WhCoCVp5l2qI-15" vertex="1">
                    <mxGeometry y="78" width="180" height="26" as="geometry"/>
                </mxCell>
                <mxCell id="ZALmVG_1WhCoCVp5l2qI-19" value="+ thumbnail: string" style="text;strokeColor=none;fillColor=none;align=left;verticalAlign=top;spacingLeft=4;spacingRight=4;overflow=hidden;rotatable=0;points=[[0,0.5],[1,0.5]];portConstraint=eastwest;" parent="ZALmVG_1WhCoCVp5l2qI-15" vertex="1">
                    <mxGeometry y="104" width="180" height="26" as="geometry"/>
                </mxCell>
                <mxCell id="ZALmVG_1WhCoCVp5l2qI-20" value="+ subjects: SubjectConfig[]" style="text;strokeColor=none;fillColor=none;align=left;verticalAlign=top;spacingLeft=4;spacingRight=4;overflow=hidden;rotatable=0;points=[[0,0.5],[1,0.5]];portConstraint=eastwest;" parent="ZALmVG_1WhCoCVp5l2qI-15" vertex="1">
                    <mxGeometry y="130" width="180" height="26" as="geometry"/>
                </mxCell>
                <mxCell id="ZALmVG_1WhCoCVp5l2qI-38" value="1" style="endArrow=open;html=1;endSize=12;startArrow=diamondThin;startSize=14;startFill=0;edgeStyle=orthogonalEdgeStyle;align=left;verticalAlign=bottom;exitX=1;exitY=0.5;exitDx=0;exitDy=0;entryX=0;entryY=0.5;entryDx=0;entryDy=0;" parent="7_IISq6sOuqJta_1WwWG-1" source="ZALmVG_1WhCoCVp5l2qI-4" target="ZALmVG_1WhCoCVp5l2qI-16" edge="1">
                    <mxGeometry x="-1" y="3" relative="1" as="geometry">
                        <mxPoint x="240" y="450" as="sourcePoint"/>
                        <mxPoint x="320" y="105" as="targetPoint"/>
                    </mxGeometry>
                </mxCell>
                <mxCell id="ZALmVG_1WhCoCVp5l2qI-39" value="AbstractSubjectConfig" style="swimlane;fontStyle=0;childLayout=stackLayout;horizontal=1;startSize=26;fillColor=none;horizontalStack=0;resizeParent=1;resizeParentMax=0;resizeLast=0;collapsible=1;marginBottom=0;" parent="7_IISq6sOuqJta_1WwWG-1" vertex="1">
                    <mxGeometry x="1000" y="30" width="140" height="104" as="geometry">
                        <mxRectangle x="1000" y="30" width="150" height="26" as="alternateBounds"/>
                    </mxGeometry>
                </mxCell>
                <mxCell id="ZALmVG_1WhCoCVp5l2qI-40" value="+ type: SubjectType" style="text;strokeColor=none;fillColor=none;align=left;verticalAlign=top;spacingLeft=4;spacingRight=4;overflow=hidden;rotatable=0;points=[[0,0.5],[1,0.5]];portConstraint=eastwest;" parent="ZALmVG_1WhCoCVp5l2qI-39" vertex="1">
                    <mxGeometry y="26" width="140" height="26" as="geometry"/>
                </mxCell>
                <mxCell id="ZALmVG_1WhCoCVp5l2qI-41" value="+ title: string" style="text;strokeColor=none;fillColor=none;align=left;verticalAlign=top;spacingLeft=4;spacingRight=4;overflow=hidden;rotatable=0;points=[[0,0.5],[1,0.5]];portConstraint=eastwest;" parent="ZALmVG_1WhCoCVp5l2qI-39" vertex="1">
                    <mxGeometry y="52" width="140" height="26" as="geometry"/>
                </mxCell>
                <mxCell id="ZALmVG_1WhCoCVp5l2qI-42" value="+ isReqired?: boolean" style="text;strokeColor=none;fillColor=none;align=left;verticalAlign=top;spacingLeft=4;spacingRight=4;overflow=hidden;rotatable=0;points=[[0,0.5],[1,0.5]];portConstraint=eastwest;" parent="ZALmVG_1WhCoCVp5l2qI-39" vertex="1">
                    <mxGeometry y="78" width="140" height="26" as="geometry"/>
                </mxCell>
                <mxCell id="ZALmVG_1WhCoCVp5l2qI-43" value="SubjectctType(题型)" style="swimlane;fontStyle=0;childLayout=stackLayout;horizontal=1;startSize=26;fillColor=none;horizontalStack=0;resizeParent=1;resizeParentMax=0;resizeLast=0;collapsible=1;marginBottom=0;" parent="7_IISq6sOuqJta_1WwWG-1" vertex="1">
                    <mxGeometry x="1000" y="156" width="140" height="260" as="geometry">
                        <mxRectangle x="1000" y="156" width="110" height="26" as="alternateBounds"/>
                    </mxGeometry>
                </mxCell>
                <mxCell id="ZALmVG_1WhCoCVp5l2qI-44" value="'single'" style="text;strokeColor=none;fillColor=none;align=left;verticalAlign=top;spacingLeft=4;spacingRight=4;overflow=hidden;rotatable=0;points=[[0,0.5],[1,0.5]];portConstraint=eastwest;" parent="ZALmVG_1WhCoCVp5l2qI-43" vertex="1">
                    <mxGeometry y="26" width="140" height="26" as="geometry"/>
                </mxCell>
                <mxCell id="ZALmVG_1WhCoCVp5l2qI-45" value="'mutiple'" style="text;strokeColor=none;fillColor=none;align=left;verticalAlign=top;spacingLeft=4;spacingRight=4;overflow=hidden;rotatable=0;points=[[0,0.5],[1,0.5]];portConstraint=eastwest;" parent="ZALmVG_1WhCoCVp5l2qI-43" vertex="1">
                    <mxGeometry y="52" width="140" height="26" as="geometry"/>
                </mxCell>
                <mxCell id="ZALmVG_1WhCoCVp5l2qI-46" value="'select'" style="text;strokeColor=none;fillColor=none;align=left;verticalAlign=top;spacingLeft=4;spacingRight=4;overflow=hidden;rotatable=0;points=[[0,0.5],[1,0.5]];portConstraint=eastwest;" parent="ZALmVG_1WhCoCVp5l2qI-43" vertex="1">
                    <mxGeometry y="78" width="140" height="26" as="geometry"/>
                </mxCell>
                <mxCell id="ZALmVG_1WhCoCVp5l2qI-51" value="'scale'" style="text;strokeColor=none;fillColor=none;align=left;verticalAlign=top;spacingLeft=4;spacingRight=4;overflow=hidden;rotatable=0;points=[[0,0.5],[1,0.5]];portConstraint=eastwest;" parent="ZALmVG_1WhCoCVp5l2qI-43" vertex="1">
                    <mxGeometry y="104" width="140" height="26" as="geometry"/>
                </mxCell>
                <mxCell id="ZALmVG_1WhCoCVp5l2qI-52" value="'sort'" style="text;strokeColor=none;fillColor=none;align=left;verticalAlign=top;spacingLeft=4;spacingRight=4;overflow=hidden;rotatable=0;points=[[0,0.5],[1,0.5]];portConstraint=eastwest;" parent="ZALmVG_1WhCoCVp5l2qI-43" vertex="1">
                    <mxGeometry y="130" width="140" height="26" as="geometry"/>
                </mxCell>
                <mxCell id="ZALmVG_1WhCoCVp5l2qI-53" value="'input'" style="text;strokeColor=none;fillColor=none;align=left;verticalAlign=top;spacingLeft=4;spacingRight=4;overflow=hidden;rotatable=0;points=[[0,0.5],[1,0.5]];portConstraint=eastwest;" parent="ZALmVG_1WhCoCVp5l2qI-43" vertex="1">
                    <mxGeometry y="156" width="140" height="26" as="geometry"/>
                </mxCell>
                <mxCell id="ZALmVG_1WhCoCVp5l2qI-54" value="'textarea'" style="text;strokeColor=none;fillColor=none;align=left;verticalAlign=top;spacingLeft=4;spacingRight=4;overflow=hidden;rotatable=0;points=[[0,0.5],[1,0.5]];portConstraint=eastwest;" parent="ZALmVG_1WhCoCVp5l2qI-43" vertex="1">
                    <mxGeometry y="182" width="140" height="26" as="geometry"/>
                </mxCell>
                <mxCell id="ZALmVG_1WhCoCVp5l2qI-55" value="'description'" style="text;strokeColor=none;fillColor=none;align=left;verticalAlign=top;spacingLeft=4;spacingRight=4;overflow=hidden;rotatable=0;points=[[0,0.5],[1,0.5]];portConstraint=eastwest;" parent="ZALmVG_1WhCoCVp5l2qI-43" vertex="1">
                    <mxGeometry y="208" width="140" height="26" as="geometry"/>
                </mxCell>
                <mxCell id="ZALmVG_1WhCoCVp5l2qI-56" value="'annex'" style="text;strokeColor=none;fillColor=none;align=left;verticalAlign=top;spacingLeft=4;spacingRight=4;overflow=hidden;rotatable=0;points=[[0,0.5],[1,0.5]];portConstraint=eastwest;" parent="ZALmVG_1WhCoCVp5l2qI-43" vertex="1">
                    <mxGeometry y="234" width="140" height="26" as="geometry"/>
                </mxCell>
                <mxCell id="r6sppRKxVzI3uFywgXhF-10" value="" style="group" parent="7_IISq6sOuqJta_1WwWG-1" vertex="1" connectable="0">
                    <mxGeometry x="210" y="170" width="180" height="104" as="geometry"/>
                </mxCell>
                <mxCell id="r6sppRKxVzI3uFywgXhF-6" value="" style="group" parent="r6sppRKxVzI3uFywgXhF-10" vertex="1" connectable="0">
                    <mxGeometry width="180" height="104" as="geometry"/>
                </mxCell>
                <mxCell id="r6sppRKxVzI3uFywgXhF-0" value="" style="group" parent="r6sppRKxVzI3uFywgXhF-6" vertex="1" connectable="0">
                    <mxGeometry width="180" height="104" as="geometry"/>
                </mxCell>
                <mxCell id="r6sppRKxVzI3uFywgXhF-1" value="SurveyPreview(问卷预览类)" style="swimlane;fontStyle=0;childLayout=stackLayout;horizontal=1;startSize=26;fillColor=none;horizontalStack=0;resizeParent=1;resizeParentMax=0;resizeLast=0;collapsible=1;marginBottom=0;" parent="r6sppRKxVzI3uFywgXhF-0" vertex="1">
                    <mxGeometry width="180" height="104" as="geometry">
                        <mxRectangle width="180" height="26" as="alternateBounds"/>
                    </mxGeometry>
                </mxCell>
                <mxCell id="r6sppRKxVzI3uFywgXhF-2" value="+ title: string" style="text;strokeColor=none;fillColor=none;align=left;verticalAlign=top;spacingLeft=4;spacingRight=4;overflow=hidden;rotatable=0;points=[[0,0.5],[1,0.5]];portConstraint=eastwest;" parent="r6sppRKxVzI3uFywgXhF-1" vertex="1">
                    <mxGeometry y="26" width="180" height="26" as="geometry"/>
                </mxCell>
                <mxCell id="r6sppRKxVzI3uFywgXhF-3" value="+ thumbnail?: string" style="text;strokeColor=none;fillColor=none;align=left;verticalAlign=top;spacingLeft=4;spacingRight=4;overflow=hidden;rotatable=0;points=[[0,0.5],[1,0.5]];portConstraint=eastwest;" parent="r6sppRKxVzI3uFywgXhF-1" vertex="1">
                    <mxGeometry y="52" width="180" height="26" as="geometry"/>
                </mxCell>
                <mxCell id="r6sppRKxVzI3uFywgXhF-4" value="+ status: 0 | 1| 2" style="text;strokeColor=none;fillColor=none;align=left;verticalAlign=top;spacingLeft=4;spacingRight=4;overflow=hidden;rotatable=0;points=[[0,0.5],[1,0.5]];portConstraint=eastwest;" parent="r6sppRKxVzI3uFywgXhF-1" vertex="1">
                    <mxGeometry y="78" width="180" height="26" as="geometry"/>
                </mxCell>
                <mxCell id="r6sppRKxVzI3uFywgXhF-11" value="Extends" style="endArrow=block;endSize=16;endFill=0;html=1;entryX=0.5;entryY=0;entryDx=0;entryDy=0;exitX=0;exitY=0.5;exitDx=0;exitDy=0;" parent="7_IISq6sOuqJta_1WwWG-1" source="r6sppRKxVzI3uFywgXhF-3" target="ZALmVG_1WhCoCVp5l2qI-7" edge="1">
                    <mxGeometry width="160" relative="1" as="geometry">
                        <mxPoint x="70" y="220" as="sourcePoint"/>
                        <mxPoint x="230" y="220" as="targetPoint"/>
                    </mxGeometry>
                </mxCell>
                <mxCell id="ZALmVG_1WhCoCVp5l2qI-2" value="Collector(采集者)" style="swimlane;fontStyle=0;childLayout=stackLayout;horizontal=1;startSize=26;fillColor=none;horizontalStack=0;resizeParent=1;resizeParentMax=0;resizeLast=0;collapsible=1;marginBottom=0;" parent="7_IISq6sOuqJta_1WwWG-1" vertex="1">
                    <mxGeometry x="20" y="30" width="140" height="130" as="geometry">
                        <mxRectangle x="50" y="40" width="90" height="26" as="alternateBounds"/>
                    </mxGeometry>
                </mxCell>
                <mxCell id="ZALmVG_1WhCoCVp5l2qI-4" value="+ uid: string" style="text;strokeColor=none;fillColor=none;align=left;verticalAlign=top;spacingLeft=4;spacingRight=4;overflow=hidden;rotatable=0;points=[[0,0.5],[1,0.5]];portConstraint=eastwest;" parent="ZALmVG_1WhCoCVp5l2qI-2" vertex="1">
                    <mxGeometry y="26" width="140" height="26" as="geometry"/>
                </mxCell>
                <mxCell id="ZALmVG_1WhCoCVp5l2qI-3" value="+ phone: string" style="text;strokeColor=none;fillColor=none;align=left;verticalAlign=top;spacingLeft=4;spacingRight=4;overflow=hidden;rotatable=0;points=[[0,0.5],[1,0.5]];portConstraint=eastwest;" parent="ZALmVG_1WhCoCVp5l2qI-2" vertex="1">
                    <mxGeometry y="52" width="140" height="26" as="geometry"/>
                </mxCell>
                <mxCell id="ZALmVG_1WhCoCVp5l2qI-5" value="+ name: string" style="text;strokeColor=none;fillColor=none;align=left;verticalAlign=top;spacingLeft=4;spacingRight=4;overflow=hidden;rotatable=0;points=[[0,0.5],[1,0.5]];portConstraint=eastwest;" parent="ZALmVG_1WhCoCVp5l2qI-2" vertex="1">
                    <mxGeometry y="78" width="140" height="26" as="geometry"/>
                </mxCell>
                <mxCell id="ZALmVG_1WhCoCVp5l2qI-6" value="+ avatar?: string" style="text;strokeColor=none;fillColor=none;align=left;verticalAlign=top;spacingLeft=4;spacingRight=4;overflow=hidden;rotatable=0;points=[[0,0.5],[1,0.5]];portConstraint=eastwest;" parent="ZALmVG_1WhCoCVp5l2qI-2" vertex="1">
                    <mxGeometry y="104" width="140" height="26" as="geometry"/>
                </mxCell>
            </root>
        </mxGraphModel>
    </diagram>
</mxfile>